# xmcd
#
# Track frame offsets:
#	150
#	11912
#	24450
#
# Disc length: 575 seconds
#
# Revision: 1
# Processed by: cddbd v1.5.1PL0 Copyright (c) Steve Scherf et al.
# Submitted via: CDex 1.50Beta5
#
DISCID=1b023d03
DTITLE=橋本　一子 - Heartful Dream
DYEAR=1900
DGENRE=Unclassifiable
TTITLE0=Heartful Dream　アイフルCMソング　ペット篇
TTITLE1=いつも心は　アイフルCMソング　ペアルック篇
TTITLE2=アイフルCMソング　Remix　「どうする？」
EXTD=
EXTT0=
EXTT1=
EXTT2=
PLAYORDER=
